HIERARCHY
ROOT joint_0
{
	OFFSET 0.000000 0.000000 0.000000
	CHANNELS 6 Xposition Yposition Zposition Zrotation Yrotation Xrotation 
	JOINT joint_1
	{
		OFFSET 13.542969 -4.074463 123.986084
		CHANNELS 3 Zrotation Yrotation Xrotation
		JOINT joint_2
		{
			OFFSET -0.108154 -3.018066 113.860962
			CHANNELS 3 Zrotation Yrotation Xrotation
			JOINT joint_3
			{
				OFFSET -1.139648 -3.876465 113.702026
				CHANNELS 3 Zrotation Yrotation Xrotation
				JOINT joint_4
				{
					OFFSET 13.593506 -8.582153 160.876953
					CHANNELS 3 Zrotation Yrotation Xrotation
					JOINT joint_5
					{
						OFFSET 26.480957 -11.565674 94.427979
						CHANNELS 3 Zrotation Yrotation Xrotation
						End Site
						{
							OFFSET 0.000000 0.000000 0.000000
						}
					}
				}
				JOINT joint_6
				{
					OFFSET 3.003662 -39.658691 88.713989
					CHANNELS 3 Zrotation Yrotation Xrotation
					JOINT joint_7
					{
						OFFSET -25.253906 -162.506348 -28.477051
						CHANNELS 3 Zrotation Yrotation Xrotation
						JOINT joint_8
						{
							OFFSET 23.083252 -8.502686 -295.281982
							CHANNELS 3 Zrotation Yrotation Xrotation
							JOINT joint_9
							{
								OFFSET 20.205566 -32.167908 -263.458008
								CHANNELS 3 Zrotation Yrotation Xrotation
								End Site
								{
									OFFSET 0.000000 0.000000 0.000000
								}
							}
						}
					}
				}
				JOINT joint_10
				{
					OFFSET 12.313232 30.012939 91.642944
					CHANNELS 3 Zrotation Yrotation Xrotation
					JOINT joint_11
					{
						OFFSET 31.960205 162.667969 -19.398926
						CHANNELS 3 Zrotation Yrotation Xrotation
						JOINT joint_12
						{
							OFFSET 51.325195 40.249023 -289.038086
							CHANNELS 3 Zrotation Yrotation Xrotation
							JOINT joint_13
							{
								OFFSET 70.170898 60.433594 -249.556030
								CHANNELS 3 Zrotation Yrotation Xrotation
								End Site
								{
									OFFSET 0.000000 0.000000 0.000000
								}
							}
						}
					}
				}
			}
		}
	}
	JOINT joint_14
	{
		OFFSET -15.093262 -91.803833 -113.326904
		CHANNELS 3 Zrotation Yrotation Xrotation
		JOINT joint_15
		{
			OFFSET 2.288818 -12.306763 -494.206055
			CHANNELS 3 Zrotation Yrotation Xrotation
			JOINT joint_16
			{
				OFFSET -54.691650 0.383423 -424.447006
				CHANNELS 3 Zrotation Yrotation Xrotation
				JOINT joint_17
				{
					OFFSET 202.154297 -21.791382 -80.181999
					CHANNELS 3 Zrotation Yrotation Xrotation
					End Site
					{
						OFFSET 0.000000 0.000000 0.000000
					}
				}
			}
		}
	}
	JOINT joint_18
	{
		OFFSET 10.704102 91.957275 -113.713013
		CHANNELS 3 Zrotation Yrotation Xrotation
		JOINT joint_19
		{
			OFFSET 0.427490 1.374878 -494.359924
			CHANNELS 3 Zrotation Yrotation Xrotation
			JOINT joint_20
			{
				OFFSET -53.071777 2.769531 -424.643028
				CHANNELS 3 Zrotation Yrotation Xrotation
				JOINT joint_21
				{
					OFFSET 200.264648 -28.253052 -82.862999
					CHANNELS 3 Zrotation Yrotation Xrotation
					End Site
					{
						OFFSET 0.000000 0.000000 0.000000
					}
				}
			}
		}
	}
}
MOTION
Frames: 10
Frame Time: 0.016667
-2807.468750 1154.361694 1136.534058 -6.854446 -3.715141 -1.299183 -0.437270 -0.239202 0.382042 -0.443846 0.044933 -0.143629 -0.445142 -0.027481 0.068117 0.953702 3.490737 -1.815107 0.000000 0.000000 0.000000 0.869141 0.303008 0.616806 0.050325 1.026274 -3.093941 0.871534 -2.392401 6.253987 0.000000 0.000000 0.000000 -1.427646 2.240189 -0.593970 0.586623 2.222181 0.701956 0.424235 0.519806 1.032462 0.000000 0.000000 0.000000 0.793102 5.219276 0.699095 0.999165 0.913870 0.882381 1.070002 -1.186835 0.294251 0.000000 0.000000 0.000000 -2.236288 -1.929358 8.803849 -2.537291 0.148433 -0.644884 -2.557074 4.557191 -0.406610 0.000000 0.000000 0.000000 
-2807.638672 1154.411621 1136.530029 -6.825027 -3.737134 -1.297320 -0.440661 -0.244610 0.373381 -0.447357 0.046035 -0.142325 -0.448784 -0.028395 0.066419 0.954052 3.500791 -1.812054 0.000000 0.000000 0.000000 0.865390 0.314559 0.633879 0.049300 1.041206 -3.101707 0.871598 -2.396802 6.250952 0.000000 0.000000 0.000000 -1.432856 2.233725 -0.598845 0.576008 2.221193 0.666085 0.414193 0.512017 1.004341 0.000000 0.000000 0.000000 0.784536 5.228445 0.693773 0.990977 0.930904 0.891339 1.063132 -1.185346 0.291698 0.000000 0.000000 0.000000 -2.245561 -1.919741 8.792281 -2.545523 0.144056 -0.634673 -2.563672 4.575780 -0.406678 0.000000 0.000000 0.000000 
-2807.820557 1154.458496 1136.524048 -6.794438 -3.759108 -1.294929 -0.444054 -0.250790 0.362138 -0.450905 0.046482 -0.140630 -0.452411 -0.028728 0.064405 0.954310 3.510547 -1.808860 0.000000 0.000000 0.000000 0.860181 0.325855 0.652623 0.048328 1.055776 -3.108782 0.871590 -2.401423 6.246841 0.000000 0.000000 0.000000 -1.441874 2.225507 -0.604424 0.563015 2.219288 0.626144 0.400528 0.498955 0.968192 0.000000 0.000000 0.000000 0.775343 5.237211 0.688071 0.982187 0.947263 0.900777 1.055726 -1.181801 0.289155 0.000000 0.000000 0.000000 -2.254376 -1.910176 8.780382 -2.553278 0.137400 -0.624667 -2.569830 4.596600 -0.406250 0.000000 0.000000 0.000000 
-2808.017334 1154.499023 1136.515015 -6.762119 -3.781550 -1.293163 -0.448011 -0.256907 0.349185 -0.454995 0.047721 -0.138666 -0.456688 -0.030694 0.062451 0.954714 3.518904 -1.806879 0.000000 0.000000 0.000000 0.853670 0.336539 0.673182 0.047231 1.069569 -3.114297 0.871048 -2.404096 6.239811 0.000000 0.000000 0.000000 -1.453944 2.215684 -0.611818 0.547781 2.215951 0.584014 0.382909 0.481387 0.922167 0.000000 0.000000 0.000000 0.765264 5.246576 0.683504 0.972610 0.961498 0.910437 1.047567 -1.174767 0.286693 0.000000 0.000000 0.000000 -2.262325 -1.899016 8.770711 -2.560196 0.125548 -0.617049 -2.575476 4.621104 -0.405089 0.000000 0.000000 0.000000 
-2808.226074 1154.536255 1136.504028 -6.728243 -3.804327 -1.291228 -0.451876 -0.263194 0.333282 -0.459020 0.047842 -0.134681 -0.460806 -0.030886 0.059478 0.954689 3.524857 -1.804557 0.000000 0.000000 0.000000 0.844150 0.346226 0.695311 0.046071 1.082028 -3.119374 0.870292 -2.405564 6.232058 0.000000 0.000000 0.000000 -1.470167 2.203347 -0.620067 0.530114 2.210988 0.537592 0.361832 0.459221 0.868058 0.000000 0.000000 0.000000 0.754336 5.256060 0.679007 0.962232 0.974889 0.920470 1.038664 -1.165241 0.284205 0.000000 0.000000 0.000000 -2.270072 -1.887537 8.761213 -2.566888 0.111419 -0.609822 -2.580952 4.648031 -0.403514 0.000000 0.000000 0.000000 
-2808.449951 1154.578369 1136.490967 -6.693650 -3.826845 -1.286995 -0.456507 -0.268226 0.314381 -0.463770 0.048052 -0.130605 -0.465670 -0.031285 0.055954 0.954492 3.529933 -1.802051 0.000000 0.000000 0.000000 0.834455 0.355131 0.717817 0.045198 1.093910 -3.125886 0.870325 -2.409281 6.228912 0.000000 0.000000 0.000000 -1.487319 2.190114 -0.627465 0.510732 2.205759 0.488442 0.337937 0.431670 0.808771 0.000000 0.000000 0.000000 0.743191 5.263949 0.671523 0.951597 0.989737 0.931501 1.029649 -1.157690 0.281461 0.000000 0.000000 0.000000 -2.278181 -1.880763 8.747597 -2.573892 0.103344 -0.599826 -2.586455 4.676193 -0.401781 0.000000 0.000000 0.000000 
-2808.687744 1154.633057 1136.474976 -6.657064 -3.849043 -1.280091 -0.462231 -0.271689 0.292973 -0.469563 0.048455 -0.126953 -0.471577 -0.031606 0.052818 0.954341 3.533344 -1.800461 0.000000 0.000000 0.000000 0.823590 0.363174 0.739109 0.044785 1.104830 -3.134863 0.871595 -2.416621 6.232828 0.000000 0.000000 0.000000 -1.505757 2.175914 -0.634505 0.489372 2.200422 0.434973 0.311232 0.397884 0.745067 0.000000 0.000000 0.000000 0.731455 5.270849 0.660217 0.940363 1.005721 0.943813 1.020269 -1.154942 0.278053 0.000000 0.000000 0.000000 -2.287714 -1.880651 8.727678 -2.582212 0.105108 -0.584556 -2.592640 4.703868 -0.400401 0.000000 0.000000 0.000000 
-2808.939941 1154.693604 1136.456055 -6.620201 -3.871058 -1.271512 -0.468174 -0.273231 0.269203 -0.475570 0.046930 -0.122165 -0.477547 -0.030155 0.048363 0.953863 3.534883 -1.798601 0.000000 0.000000 0.000000 0.810877 0.370133 0.760237 0.044627 1.114485 -3.145170 0.873613 -2.425384 6.241954 0.000000 0.000000 0.000000 -1.526348 2.160248 -0.640930 0.466306 2.194356 0.378748 0.281857 0.359345 0.676113 0.000000 0.000000 0.000000 0.719730 5.276102 0.646792 0.929087 1.023312 0.956605 1.010913 -1.153875 0.274472 0.000000 0.000000 0.000000 -2.297483 -1.885005 8.704341 -2.590750 0.113046 -0.566583 -2.598770 4.732423 -0.398878 0.000000 0.000000 0.000000 
-2809.211914 1154.743896 1136.433960 -6.584998 -3.892178 -1.260464 -0.473201 -0.274368 0.241551 -0.480617 0.046843 -0.116991 -0.482691 -0.029762 0.043646 0.953171 3.535183 -1.796573 0.000000 0.000000 0.000000 0.798421 0.377492 0.782714 0.044579 1.124745 -3.155309 0.875810 -2.435336 6.251465 0.000000 0.000000 0.000000 -1.548476 2.143503 -0.644908 0.442964 2.187567 0.324051 0.251289 0.320670 0.603010 0.000000 0.000000 0.000000 0.707747 5.276692 0.630261 0.917381 1.044510 0.971361 1.001281 -1.147304 0.271378 0.000000 0.000000 0.000000 -2.306043 -1.894718 8.679494 -2.598227 0.126277 -0.549261 -2.604116 4.766117 -0.396320 0.000000 0.000000 0.000000 
-2809.512695 1154.784546 1136.411987 -6.551850 -3.910643 -1.248347 -0.476561 -0.273737 0.211066 -0.483955 0.046519 -0.109579 -0.486182 -0.030329 0.038105 0.953722 3.534974 -1.799126 0.000000 0.000000 0.000000 0.784003 0.385494 0.809651 0.044605 1.136834 -3.170925 0.878928 -2.449755 6.264398 0.000000 0.000000 0.000000 -1.573898 2.125298 -0.650862 0.419931 2.178049 0.276001 0.219389 0.283186 0.524084 0.000000 0.000000 0.000000 0.695824 5.267141 0.612050 0.905231 1.074113 0.988107 0.991256 -1.130128 0.269275 0.000000 0.000000 0.000000 -2.309861 -1.912883 8.655356 -2.601218 0.145659 -0.534702 -2.605738 4.807569 -0.391152 0.000000 0.000000 0.000000 
